# AST/ASF file generated using VICON BodyLanguage
# -----------------------------------------------
:version 1.10
:name VICON
:units
  mass 1.0
  length 0.45
  angle deg
:documentation
   .ast/.asf automatically generated from VICON data using
   VICON BodyBuilder and BodyLanguage model FoxedUp or BRILLIANT.MOD
:root
   order TX TY TZ RX RY RZ
   axis XYZ
   position 0 0 0  
   orientation 0 0 0 
:bonedata
  begin
     id 1 
     name lhipjoint
     direction 0.62366 -0.717238 0.310833 
     length 2.53602 
     axis 0 0 0  XYZ
  end
  begin
     id 2 
     name lfemur
     direction 0.34202 -0.939693 0  
     length 7.40817  
     axis 0 0 20  XYZ
    dof rx ry rz
    limits (-160.0 20.0)
           (-70.0 70.0)
           (-60.0 70.0)
  end
  begin
     id 3 
     name ltibia
     direction 0.34202 -0.939693 0   
     length 7.7045   
     axis 0 0 20   XYZ
    dof rx
    limits (-10.0 170.0)
  end
  begin
     id 4 
     name lfoot
     direction 0.0673888 -0.185149 0.980397   
     length 2.09456   
     axis -90 7.62852e-016 20   XYZ
    dof rx rz
    limits (-45.0 90.0)
           (-70.0 20.0)
  end
  begin
     id 5 
     name ltoes
     direction 1.53575e-011 -4.21994e-011 1   
     length 1.05543   
     axis -90 7.62852e-016 20   XYZ
    dof rx
    limits (-90.0 20.0)
  end
  begin
     id 6 
     name rhipjoint
     direction -0.489018 -0.800347 0.346851   
     length 2.27268  
     axis 0 0 0  XYZ 
  end
  begin
     id 7 
     name rfemur
     direction -0.34202 -0.939693 0   
     length 7.55487   
     axis 0 0 -20   XYZ
    dof rx ry rz
    limits (-160.0 20.0)
           (-70.0 70.0)
           (-70.0 60.0)
  end
  begin
     id 8 
     name rtibia
     direction -0.34202 -0.939693 0   
     length 7.78969   
     axis 0 0 -20   XYZ
    dof rx
    limits (-10.0 170.0)
 end
 begin
     id 9 
     name rfoot
     direction -0.0859318 -0.236096 0.967923   
     length 2.19143  
     axis -90 -7.62852e-016 -20   XYZ
    dof rx rz
    limits (-45.0 90.0)
           (-20.0 70.0)
  end
  begin
     id 10 
     name rtoes
     direction -1.53538e-011 -4.21989e-011 1   
     length 1.09845   
     axis -90 -7.62852e-016 -20   XYZ
    dof rx
    limits (-90.0 20.0)
  end
  begin
     id 11 
     name lowerback
     direction -0.00762546 0.998978 -0.0445553   
     length 1.98161   
     axis 0 0 0   XYZ
    dof rx ry rz
    limits (-20.0 45.0)
           (-30.0 30.0)
           (-30.0 30.0)
  end
  begin
     id 12 
     name upperback
     direction 0.0422361 0.998867 -0.0219156   
     length 1.97558   
     axis 0 0 0   XYZ
    dof rx ry rz
    limits (-20.0 45.0)
           (-30.0 30.0)
           (-30.0 30.0)
  end
  begin
     id 13 
     name thorax
     direction 0.0442465 0.999021 7.47603e-005   
     length 1.97799   
     axis 0 0 0   XYZ
    dof rx ry rz
    limits (-20.0 45.0)
           (-30.0 30.0)
           (-30.0 30.0)
  end
  begin
     id 14 
     name lowerneck
     direction 0.00312169 0.984641 0.174564   
     length 1.78995   
     axis 0 0 0   XYZ
    dof rx ry rz
    limits (-20.0 45.0)
           (-30.0 30.0)
           (-30.0 30.0)
  end
  begin
     id 15 
     name upperneck
     direction -0.0383028 0.985255 -0.166749   
     length 1.83053   
     axis 0 0 0   XYZ
    dof rx ry rz
    limits (-20.0 45.0)
           (-30.0 30.0)
           (-30.0 30.0)
  end
  begin
     id 16
     name head
     direction -0.0129546 0.997059 -0.0755386  
     length 1.84088  
     axis 0 0 0   XYZ
    dof rx ry rz
    limits (-20.0 45.0)
           (-30.0 30.0)
           (-30.0 30.0)
  end
  begin
     id 17 
     name lclavicle
     direction 0.912857 0.370519 -0.171488  
     length 3.51279  
     axis 0 0 0   XYZ
    dof ry rz
    limits (-20.0 10.0)
           (0.0 20.0)
  end
  begin
     id 18 
     name lhumerus
     direction 1 -4.48962e-011 3.64361e-027   
     length 4.95663   
     axis 180 -30 -90   XYZ
    dof rx ry rz
    limits (-60.0 90.0)
           (-90.0 90.0)
           (-90.0 90.0)
  end
  begin
     id 19
     name lradius
     direction 1 -4.48974e-011 5.97202e-027   
     length 3.38177   
     axis 180 -30 -90   XYZ
    dof rx
    limits (-10.0 170.0)
  end
  begin
     id 20
     name lwrist
     direction 1 -4.4896e-011 9.83288e-027   
     length 1.69088   
     axis -9.31221e-015 90 90   XYZ
    dof ry
    limits (-180.0 0.0)
 end
  begin
     id 21 
     name lhand
     direction 1 -4.4902e-011 1.96551e-026   
     length 0.662909   
     axis -1.25475e-014 90 90   XYZ
    dof rx rz
    limits (-90.0 90.0)
           (-45.0 45.0)
  end
  begin
     id 22 
     name lfingers
     direction 1 -4.48971e-011 3.93277e-026   
     length 0.534454   
     axis -2.50945e-014 90 90   XYZ
    dof rx
    limits (0.0 90.0)
  end
  begin
     id 23
     name lthumb
     direction 0.707107 -6.34933e-011 0.707107   
     length 0.767373   
     axis -90 45 -4.80359e-014   XYZ
    dof rx rz
    limits (-45.0 45.0)
           (-45.0 45.0)
  end
  begin
     id 24 
     name rclavicle
     direction -0.900919 0.395364 -0.178976   
     length 3.40627  
     axis 0 0 0   XYZ 
    dof ry rz
    limits (-10.0 20.0)
           (-20.0 0.0)
  end
  begin
     id 25 
     name rhumerus
     direction -1 -4.48969e-011 1.03875e-027  
     length 5.08365   
     axis 180 30 90   XYZ
    dof rx ry rz
    limits (-90.0 60.0)
           (-90.0 90.0)
           (-90.0 90.0)
  end
  begin
     id 26 
     name rradius
     direction -1 -4.48951e-011 5.02733e-027   
     length 3.35984   
     axis 180 30 90   XYZ
    dof rx
    limits (-10.0 170.0)
  end
  begin
     id 27 
     name rwrist
     direction -1 -4.49011e-011 9.82828e-027   
     length 1.67992   
     axis -9.31221e-015 -90 -90   XYZ
    dof ry
    limits (-180.0 0.0)
  end
  begin
     id 28
     name rhand
     direction -1 -4.48894e-011 1.96774e-026   
     length 0.820764   
     axis -1.25475e-014 -90 -90   XYZ
    dof rx rz
    limits (-90.0 90.0)
           (-45.0 45.0)
  end
  begin
     id 29
     name rfingers
     direction -1 -4.49095e-011 3.92833e-026   
     length 0.661721   
     axis -2.50945e-014 -90 -90   XYZ
    dof rx
    limits (0.0 90.0)
  end
  begin
     id 30
     name rthumb
     direction -0.707107 -6.34881e-011 0.707107   
     length 0.950103   
     axis -90 -45 4.80359e-014   XYZ
    dof rx rz
    limits (-45.0 45.0)
           (-45.0 45.0)
  end
:hierarchy
  begin
    root lhipjoint rhipjoint lowerback
    lhipjoint lfemur
    lfemur ltibia
    ltibia lfoot
    lfoot ltoes
    rhipjoint rfemur
    rfemur rtibia
    rtibia rfoot
    rfoot rtoes
    lowerback upperback
    upperback thorax
    thorax lowerneck lclavicle rclavicle
    lowerneck upperneck
    upperneck head
    lclavicle lhumerus
    lhumerus lradius
    lradius lwrist
    lwrist lhand lthumb
    lhand lfingers
    rclavicle rhumerus
    rhumerus rradius
    rradius rwrist
    rwrist rhand rthumb
    rhand rfingers
  end

#!OML:ASF I:\golf\golf\golf 2\Subject 1\2002-09-07\Subject1.ASF
:FULLY-SPECIFIED
:DEGREES
110
root -0.173541 18.0265 -3.26044 10.9494 1.68935 -0.905033
lowerback -1.35512 0.11188 -6.36253
upperback 3.93927 0.201877 4.68296
thorax 4.85628 -0.252477 8.5666
lowerneck -14.1411 3.1775 0.174802
upperneck 41.2603 9.50753 -10.3708
head 18.6983 2.512 -3.10265
rclavicle -3.57812e-015 -7.95139e-015
rhumerus -21.6017 2.60871 -81.9657
rradius 27.5056
rwrist -11.8839
rhand -23.9843 14.1689
rfingers 7.12502
rthumb 2.49252 -15.7963
lclavicle -3.57812e-015 -7.95139e-015
lhumerus -30.1156 -26.7699 103.59
lradius 50.101
lwrist 10.0928
lhand -14.1092 35.4362
lfingers 7.12502
lthumb 12.0238 65.0708
rfemur -19.2668 -3.84171 25.2948
rtibia 29.7819
rfoot -15.4752 -13.9468
rtoes 5.16226
lfemur -23.4997 3.7594 -17.8706
ltibia 33.8077
lfoot -12.6119 -5.46111
ltoes -10.9789
111
root -0.18794 18.0246 -3.27168 10.9146 1.8221 -0.904631
lowerback -1.04328 0.141635 -6.43333
upperback 3.96737 0.228932 4.70016
thorax 4.70325 -0.236058 8.62415
lowerneck -13.9223 3.12394 0.181251
upperneck 41.2596 9.42154 -10.3979
head 18.6301 2.48454 -3.13515
rclavicle 7.15625e-015 -1.27222e-014
rhumerus -21.6873 3.00638 -82.0878
rradius 27.6053
rwrist -12.3358
rhand -24.3605 14.1135
rfingers 7.12502
rthumb 2.12915 -15.8557
lclavicle 7.15625e-015 -1.27222e-014
lhumerus -30.296 -27.3047 103.653
lradius 50.4229
lwrist 10.0705
lhand -14.4112 35.4968
lfingers 7.12502
lthumb 11.7326 65.1482
rfemur -19.3164 -3.92312 25.361
rtibia 29.8753
rfoot -15.5157 -13.919
rtoes 5.69932
lfemur -24.0009 3.93102 -17.8483
ltibia 34.6165
lfoot -12.4146 -5.70273
ltoes -10.982
112
root -0.201866 18.0223 -3.28423 10.9797 1.96424 -0.921962
lowerback -0.759192 0.175297 -6.48153
upperback 3.83945 0.261678 4.7204
thorax 4.39927 -0.203293 8.66924
lowerneck -13.3859 3.03191 0.0953155
upperneck 41.2346 9.23513 -10.3101
head 18.4295 2.42886 -3.11389
rclavicle -9.54166e-015 5.56597e-015
rhumerus -22.0131 3.33963 -82.1739
rradius 27.7786
rwrist -12.7093
rhand -24.4984 14.164
rfingers 7.12502
rthumb 1.99598 -15.8064
lclavicle -9.54166e-015 5.56597e-015
lhumerus -30.737 -27.9169 103.899
lradius 50.7469
lwrist 10.247
lhand -14.1795 35.7081
lfingers 7.12502
lthumb 11.956 65.3467
rfemur -19.5005 -4.09574 25.4624
rtibia 29.9691
rfoot -15.5658 -13.8626
rtoes 5.97291
lfemur -24.6732 4.11969 -17.8114
ltibia 35.5012
lfoot -12.1294 -5.96495
ltoes -11.2281
113
root -0.215889 18.0193 -3.29738 11.0853 2.17718 -0.99693
lowerback -0.504305 0.173227 -6.45413
upperback 3.81556 0.244127 4.77319
thorax 4.23221 -0.203667 8.7061
lowerneck -13.1609 2.9986 0.0376168
upperneck 41.1862 9.18216 -10.3079
head 18.3284 2.40939 -3.11007
rclavicle 4.77083e-015 -7.95139e-016
rhumerus -21.9986 3.46357 -82.1661
rradius 27.9114
rwrist -12.429
rhand -24.3439 13.9
rfingers 7.12502
rthumb 2.14519 -16.069
lclavicle 4.77083e-015 -7.95139e-016
lhumerus -30.8686 -28.4856 104.022
lradius 51.0363
lwrist 10.4293
lhand -13.7054 36.2849
lfingers 7.12502
lthumb 12.4131 65.8964
rfemur -19.7187 -4.33661 25.6451
rtibia 30.0474
rfoot -15.5901 -13.7853
rtoes 5.84078
lfemur -25.4324 4.35502 -17.7008
ltibia 36.4493
lfoot -11.8544 -6.40089
ltoes -11.4094
114
root -0.229611 18.0171 -3.3101 11.1646 2.45638 -1.03864
lowerback -0.237576 0.14802 -6.45109
upperback 3.89866 0.195513 4.82875
thorax 4.1784 -0.229661 8.76138
lowerneck -13.2153 2.97785 -0.00657616
upperneck 41.163 9.16714 -10.315
head 18.3263 2.39518 -3.10593
rclavicle 9.93923e-015 5.56597e-014
rhumerus -21.7291 3.55914 -82.1504
rradius 27.9258
rwrist -11.8559
rhand -24.1288 13.7111
rfingers 7.12502
rthumb 2.35295 -16.2557
lclavicle 9.93923e-015 5.56597e-014
lhumerus -30.7452 -28.9994 104.012
lradius 51.2926
lwrist 10.607
lhand -13.6829 36.6757
lfingers 7.12502
lthumb 12.4349 66.2858
rfemur -19.8953 -4.53671 25.7803
rtibia 30.1273
rfoot -15.6258 -13.7289
rtoes 6.2715
lfemur -26.1799 4.57449 -17.5983
ltibia 37.4257
lfoot -11.5246 -7.00837
ltoes -12.0227
115
root -0.240992 18.0168 -3.3206 11.1694 2.66926 -0.98226
lowerback 0.045942 0.159289 -6.51093
upperback 4.00048 0.198286 4.83201
thorax 4.12487 -0.231651 8.79855
lowerneck -13.2497 2.91875 -0.113394
upperneck 41.1346 9.06629 -10.2183
head 18.2918 2.3506 -3.05586
rclavicle -2.78299e-015 -1.66979e-014
rhumerus -21.5856 3.79452 -82.1853
rradius 28.0046
rwrist -11.6647
rhand -24.0701 13.7404
rfingers 7.12502
rthumb 2.40965 -16.2257
lclavicle -2.78299e-015 -1.66979e-014
lhumerus -30.7687 -29.5243 104.033
lradius 51.6632
lwrist 10.7656
lhand -13.9289 36.9314
lfingers 7.12502
lthumb 12.1976 66.5558
rfemur -19.9844 -4.76104 25.7832
rtibia 30.2224
rfoot -15.7019 -13.6207
rtoes 6.95369
lfemur -26.8424 4.69982 -17.5803
ltibia 38.395
lfoot -11.1002 -7.61834
ltoes -11.8521
116
root -0.251617 18.0149 -3.33218 11.161 2.87456 -0.956759
lowerback 0.360288 0.185908 -6.52909
upperback 4.09508 0.218888 4.84066
thorax 4.04221 -0.221658 8.81715
lowerneck -13.1786 2.85321 -0.194417
upperneck 41.042 8.96736 -10.2026
head 18.1996 2.3066 -3.04573
rclavicle -3.18055e-015 -2.3059e-014
rhumerus -21.504 4.18541 -82.2502
rradius 28.1777
rwrist -11.8823
rhand -24.2031 13.5401
rfingers 7.12502
rthumb 2.28122 -16.4275
lclavicle -3.18055e-015 -2.3059e-014
lhumerus -30.848 -30.1047 104.109
lradius 52.0182
lwrist 10.771
lhand -14.1559 36.9059
lfingers 7.12502
lthumb 11.9787 66.5432
rfemur -20.0695 -4.95222 25.8206
rtibia 30.3296
rfoot -15.7701 -13.5625
rtoes 7.43664
lfemur -27.5092 4.77068 -17.5163
ltibia 39.3521
lfoot -10.6109 -8.13605
ltoes -11.343
117
root -0.261808 18.0091 -3.34842 11.2229 3.14392 -0.977215
lowerback 0.652975 0.188084 -6.53813
upperback 4.18199 0.20616 4.89541
thorax 3.97092 -0.229372 8.88025
lowerneck -13.0518 2.78814 -0.243862
upperneck 40.8657 8.88266 -10.2805
head 18.0548 2.26591 -3.07844
rclavicle -8.74653e-015 -3.97569e-015
rhumerus -21.3083 4.64358 -82.2775
rradius 28.3234
rwrist -12.0987
rhand -24.2488 13.2914
rfingers 7.12502
rthumb 2.23706 -16.6766
lclavicle -8.74653e-015 -3.97569e-015
lhumerus -30.766 -30.7332 104.194
lradius 52.2359
lwrist 10.6167
lhand -14.493 36.8227
lfingers 7.12502
lthumb 11.6537 66.4786
rfemur -20.2656 -5.12862 25.9274
rtibia 30.4552
rfoot -15.7934 -13.5974
rtoes 7.70462
lfemur -28.306 4.86095 -17.4069
ltibia 40.3092
lfoot -10.0947 -8.60221
ltoes -11.7844
118
root -0.270526 18.0015 -3.36601 11.3304 3.37852 -1.00068
lowerback 0.890392 0.217799 -6.51843
upperback 4.30696 0.233325 4.92563
thorax 3.96282 -0.219731 8.90182
lowerneck -13.092 2.72914 -0.253661
upperneck 40.732 8.78248 -10.2916
head 17.9752 2.2265 -3.09081
rclavicle -2.78299e-015 2.70347e-014
rhumerus -21.0382 5.0853 -82.3002
rradius 28.4696
rwrist -12.344
rhand -24.2163 13.2686
rfingers 7.12502
rthumb 2.26849 -16.6991
lclavicle -2.78299e-015 2.70347e-014
lhumerus -30.6875 -31.4641 104.202
lradius 52.5705
lwrist 10.3359
lhand -14.8898 36.972
lfingers 7.12502
lthumb 11.2711 66.6492
rfemur -20.5464 -5.31016 26.0314
rtibia 30.6052
rfoot -15.8006 -13.6038
rtoes 7.97446
lfemur -29.1615 4.92233 -17.2857
ltibia 41.2868
lfoot -9.62126 -8.9891
ltoes -12.2355
119
root -0.278201 17.9939 -3.38139 11.4388 3.50743 -1.08014
lowerback 1.15206 0.277867 -6.42695
upperback 4.40223 0.299501 4.94981
thorax 3.90079 -0.184094 8.87423
lowerneck -13.2 2.69536 -0.281
upperneck 40.7329 8.72495 -10.2395
head 17.9926 2.20326 -3.07048
rclavicle 9.14409e-015 -6.36111e-015
rhumerus -20.8583 5.49418 -82.3474
rradius 28.6025
rwrist -12.461
rhand -24.3731 13.3727
rfingers 7.12502
rthumb 2.11706 -16.5966
lclavicle 9.14409e-015 -6.36111e-015
lhumerus -30.8131 -32.1475 104.241
lradius 53.0591
lwrist 9.98735
lhand -15.4255 36.9744
lfingers 7.12502
lthumb 10.7543 66.6791
rfemur -20.839 -5.466 26.1789
rtibia 30.7742
rfoot -15.8186 -13.5256
rtoes 8.25118
lfemur -29.9752 5.01705 -17.084
ltibia 42.2604
lfoot -9.25649 -9.35134
ltoes -12.1767
120
root -0.285112 17.9875 -3.39431 11.4907 3.5928 -1.18819
lowerback 1.45107 0.365644 -6.30368
upperback 4.47469 0.401571 4.96839
thorax 3.78608 -0.125852 8.82095
lowerneck -13.2087 2.6346 -0.290354
upperneck 40.7337 8.62529 -10.2125
head 17.982 2.16638 -3.07388
rclavicle -1.98785e-015 -3.97569e-015
rhumerus -20.7441 5.7642 -82.3971
rradius 28.656
rwrist -12.3916
rhand -24.5533 13.4069
rfingers 7.12502
rthumb 1.94298 -16.564
lclavicle -1.98785e-015 -3.97569e-015
lhumerus -31.0503 -32.7438 104.337
lradius 53.5877
lwrist 9.54095
lhand -15.9869 36.8856
lfingers 7.12502
lthumb 10.2128 66.6177
rfemur -21.0535 -5.71182 26.3759
rtibia 30.9515
rfoot -15.8293 -13.4664
rtoes 7.63612
lfemur -30.6773 5.18049 -16.8492
ltibia 43.2011
lfoot -9.00505 -9.631
ltoes -12.6154
121
root -0.292145 17.9837 -3.40863 11.5594 3.69208 -1.19386
lowerback 1.70093 0.485792 -6.24281
upperback 4.6372 0.551863 4.91912
thorax 3.78565 -0.0524619 8.7324
lowerneck -13.3602 2.53227 -0.210895
upperneck 40.6426 8.43716 -10.2081
head 17.9514 2.10254 -3.11401
rclavicle -1.35174e-014 -8.74653e-015
rhumerus -20.3884 5.92969 -82.4451
rradius 28.6458
rwrist -12.5015
rhand -24.538 13.2922
rfingers 7.12502
rthumb 1.95777 -16.6785
lclavicle -1.35174e-014 -8.74653e-015
lhumerus -31.0688 -33.4793 104.293
lradius 54.1043
lwrist 8.9962
lhand -16.4025 36.7885
lfingers 7.12502
lthumb 9.81183 66.5399
rfemur -21.2798 -5.93991 26.4578
rtibia 31.1346
rfoot -15.8842 -13.4079
rtoes 7.37465
lfemur -31.3858 5.29671 -16.7397
ltibia 44.107
lfoot -8.90108 -9.6189
ltoes -14.4408
122
root -0.300831 17.9776 -3.42647 11.6465 3.81209 -1.18218
lowerback 2.02696 0.552847 -6.27242
upperback 4.78399 0.626995 4.91432
thorax 3.74137 -0.0187123 8.74302
lowerneck -13.5767 2.46954 -0.255085
upperneck 40.5912 8.34531 -10.173
head 17.9647 2.05811 -3.10154
rclavicle 8.34896e-015 -1.19271e-014
rhumerus -19.9635 6.31671 -82.4814
rradius 28.6646
rwrist -12.81
rhand -24.5333 13.2305
rfingers 7.12502
rthumb 1.96229 -16.7402
lclavicle 8.34896e-015 -1.19271e-014
lhumerus -31.0016 -34.0034 104.242
lradius 54.5694
lwrist 8.34257
lhand -16.8531 36.7678
lfingers 7.12502
lthumb 9.37707 66.5393
rfemur -21.5461 -6.03774 26.5012
rtibia 31.3203
rfoot -16.0016 -13.37
rtoes 7.84072
lfemur -32.1647 5.41349 -16.6406
ltibia 44.9664
lfoot -8.88211 -9.51672
ltoes -16.4575
123
root -0.307727 17.9682 -3.44428 11.7084 3.93847 -1.30566
lowerback 2.41553 0.582248 -6.21275
upperback 4.85338 0.646845 4.98901
thorax 3.59061 -0.0037406 8.78502
lowerneck -13.5515 2.44907 -0.329219
upperneck 40.4881 8.33228 -10.1983
head 17.8947 2.04256 -3.09527
rclavicle -3.18055e-015 -4.45278e-014
rhumerus -19.7429 6.82243 -82.5087
rradius 28.7804
rwrist -13.1153
rhand -24.6179 13.3155
rfingers 7.12502
rthumb 1.88062 -16.656
lclavicle -3.18055e-015 -4.45278e-014
lhumerus -31.0976 -34.2317 104.314
lradius 54.998
lwrist 7.52117
lhand -17.3179 36.7867
lfingers 7.12502
lthumb 8.92855 66.5778
rfemur -21.8083 -6.17018 26.6981
rtibia 31.5257
rfoot -16.0773 -13.3343
rtoes 7.73739
lfemur -32.9108 5.5613 -16.3892
ltibia 45.7608
lfoot -8.94961 -9.47945
ltoes -18.0052
124
root -0.310743 17.9612 -3.46028 11.7423 4.03686 -1.46658
lowerback 2.73204 0.655202 -6.04396
upperback 4.99586 0.729263 5.04349
thorax 3.5454 0.0399286 8.74297
lowerneck -13.456 2.38384 -0.329951
upperneck 40.2367 8.21841 -10.2655
head 17.7148 1.9992 -3.13128
rclavicle 6.36111e-015 -2.46493e-014
rhumerus -19.492 7.18087 -82.5
rradius 28.967
rwrist -13.3536
rhand -24.6427 13.3993
rfingers 7.12502
rthumb 1.85667 -16.5724
lclavicle 6.36111e-015 -2.46493e-014
lhumerus -31.07 -34.6012 104.34
lradius 55.3704
lwrist 6.6796
lhand -17.8249 36.5069
lfingers 7.12502
lthumb 8.43932 66.3182
rfemur -22.0437 -6.35425 26.9295
rtibia 31.7589
rfoot -16.0642 -13.2322
rtoes 7.30426
lfemur -33.5547 5.6973 -16.1087
ltibia 46.4724
lfoot -9.13895 -9.49371
ltoes -19.6467
